<svg width="363" height="144" viewBox="0 0 363 144" fill="none" xmlns="http://www.w3.org/2000/svg">
<path d="M40.192 132.76C35.2427 132.76 30.4213 132.291 25.728 131.352C21.0347 130.413 17.4507 129.176 14.976 127.64C13.6107 126.872 13.2693 125.933 13.952 124.824L17.664 118.552C18.176 117.699 18.688 117.272 19.2 117.272C19.5413 117.272 19.968 117.4 20.48 117.656C25.1733 120.045 31.2747 121.24 38.784 121.24C44.5013 121.24 48.6827 119.875 51.328 117.144C53.9733 114.413 55.296 109.805 55.296 103.32C52.9067 105.88 50.0907 107.8 46.848 109.08C43.6907 110.275 39.8507 110.872 35.328 110.872C25.7707 110.872 18.304 108.269 12.928 103.064C7.63733 97.8587 4.992 90.52 4.992 81.048C4.992 70.296 8.14933 62.0613 14.464 56.344C20.864 50.5413 30.08 47.64 42.112 47.64C47.6587 47.64 53.0773 48.408 58.368 49.944C63.744 51.48 68.096 53.4 71.424 55.704V99.608C71.424 109.933 68.9067 118.04 63.872 123.928C58.8373 129.816 50.944 132.76 40.192 132.76ZM39.168 98.84C43.9467 98.84 47.8293 97.6027 50.816 95.128C53.8027 92.568 55.296 89.0693 55.296 84.632V61.848C53.6747 61.08 51.6267 60.4827 49.152 60.056C46.6773 59.6293 44.0747 59.416 41.344 59.416C27.8613 59.416 21.12 66.2853 21.12 80.024C21.12 86.3387 22.6133 91.0747 25.6 94.232C28.5867 97.304 33.1093 98.84 39.168 98.84ZM91.288 111C89.5813 111 88.344 110.616 87.576 109.848C86.8933 109.08 86.552 107.928 86.552 106.392V28.696C86.552 27.0747 86.8933 25.88 87.576 25.112C88.344 24.344 89.5813 23.96 91.288 23.96H98.072C99.7787 23.96 101.016 24.344 101.784 25.112C102.552 25.88 102.936 27.0747 102.936 28.696V106.392C102.936 107.928 102.552 109.08 101.784 109.848C101.101 110.616 99.864 111 98.072 111H91.288Z" fill="#FF671F"/>
<path d="M144.68 112.92C133.587 112.92 125.011 110.019 118.952 104.216C112.979 98.328 109.992 90.3493 109.992 80.28C109.992 70.2107 112.979 62.2747 118.952 56.472C125.011 50.584 133.587 47.64 144.68 47.64C155.773 47.64 164.349 50.584 170.408 56.472C176.467 62.2747 179.496 70.2107 179.496 80.28C179.496 90.3493 176.467 98.328 170.408 104.216C164.349 110.019 155.773 112.92 144.68 112.92ZM144.68 100.888C150.739 100.888 155.347 99.1387 158.504 95.64C161.661 92.1413 163.24 87.0213 163.24 80.28C163.24 73.624 161.661 68.5893 158.504 65.176C155.347 61.6773 150.739 59.928 144.68 59.928C138.707 59.928 134.099 61.6773 130.856 65.176C127.699 68.5893 126.12 73.624 126.12 80.28C126.12 86.936 127.699 92.056 130.856 95.64C134.099 99.1387 138.707 100.888 144.68 100.888ZM222.338 112.92C210.989 112.92 202.114 110.147 195.714 104.6C189.399 98.968 186.242 90.9467 186.242 80.536C186.242 74.0507 187.693 68.3333 190.594 63.384C193.495 58.4347 197.634 54.5947 203.01 51.864C208.471 49.048 214.829 47.64 222.082 47.64C227.458 47.64 232.023 48.152 235.778 49.176C239.533 50.2 243.031 51.864 246.274 54.168C247.042 54.68 247.426 55.2347 247.426 55.832C247.426 56.344 247.213 56.9413 246.786 57.624L243.33 63.64C242.818 64.4933 242.349 64.92 241.922 64.92C241.495 64.92 240.898 64.664 240.13 64.152C237.485 62.5307 234.839 61.336 232.194 60.568C229.634 59.7147 226.562 59.288 222.978 59.288C216.578 59.288 211.543 61.208 207.874 65.048C204.205 68.8027 202.37 73.9653 202.37 80.536C202.37 87.448 204.205 92.6533 207.874 96.152C211.543 99.5653 216.919 101.272 224.002 101.272C227.586 101.272 230.701 100.845 233.346 99.992C235.991 99.1387 238.551 97.9013 241.026 96.28C241.709 95.8533 242.263 95.64 242.69 95.64C243.202 95.64 243.714 96.0667 244.226 96.92L247.938 103.192C248.279 103.619 248.45 104.088 248.45 104.6C248.45 105.197 248.023 105.795 247.17 106.392C243.757 108.611 240.087 110.232 236.162 111.256C232.237 112.365 227.629 112.92 222.338 112.92Z" fill="#06038D"/>
<path d="M277.384 112.92C269.021 112.92 262.365 110.403 257.416 105.368C252.467 100.248 249.992 93.08 249.992 83.864C249.992 76.696 251.571 70.3813 254.728 64.92C257.885 59.3733 262.365 55.1067 268.168 52.12C274.056 49.1333 280.883 47.64 288.648 47.64C299.485 47.64 308.659 50.2 316.168 55.32V107.544C316.168 108.824 315.869 109.72 315.272 110.232C314.76 110.744 313.821 111 312.456 111H305.416C304.477 111 303.752 110.829 303.24 110.488C302.813 110.061 302.515 109.421 302.344 108.568L301.32 103.576C298.675 106.819 295.389 109.208 291.464 110.744C287.624 112.195 282.931 112.92 277.384 112.92ZM283.528 101.272C288.051 101.272 292.019 99.9493 295.432 97.304C298.931 94.6587 300.68 91.16 300.68 86.808V61.848C298.888 60.9093 297.053 60.2693 295.176 59.928C293.384 59.5013 291.165 59.288 288.52 59.288C281.779 59.288 276.36 61.4213 272.264 65.688C268.168 69.9547 266.12 75.8427 266.12 83.352C266.12 89.496 267.528 94.0187 270.344 96.92C273.245 99.8213 277.64 101.272 283.528 101.272ZM336.038 111C334.331 111 333.094 110.616 332.326 109.848C331.643 109.08 331.302 107.928 331.302 106.392V28.696C331.302 27.0747 331.643 25.88 332.326 25.112C333.094 24.344 334.331 23.96 336.038 23.96H342.822C344.529 23.96 345.766 24.344 346.534 25.112C347.302 25.88 347.686 27.0747 347.686 28.696V106.392C347.686 107.928 347.302 109.08 346.534 109.848C345.851 110.616 344.614 111 342.822 111H336.038Z" fill="#046A38"/>
</svg>
